<?xml version="1.0" encoding="UTF-8"?><svg id="Calque_2" xmlns="http://www.w3.org/2000/svg" viewBox="0 0 650.36 177.91"><g id="Calque_1-2"><g><path d="M342.79,67.59c-.92-.12-1.78,.75-2.73,.14-.32-.2-.7-.36-.58-.84,.09-.38,.42-.46,.73-.43,.9,.07,1.73-.19,2.58-.4v1.52Z" fill="#efefee"/><path d="M342.79,55.41h-1.8c.35-.91,1.12-.74,1.8-.76v.76Z" fill="#ebebea"/><path d="M342.79,45.89c-.57-.63-.56-1.27,0-1.9v1.9Z" fill="#edeceb"/><path d="M342.79,48.17c-.99-.51-.53-1.02,0-1.52v1.52Z" fill="#ecebea"/><path d="M332.86,0c.37,.12,.41,.36,.4,.61-.01,.24-.05,.57-.39,.38-.16-.09-.24-.41-.26-.64-.01-.11,.18-.25,.26-.36Z" fill="#efeeed"/><g id="Groupe_5466-2"><path id="Tracé_382" d="M278.86,47.22c.02-5.3-4.25-9.61-9.55-9.63-4.91-.02-9.04,3.67-9.57,8.56-.02,.36-.02,.72,0,1.07v27.11h-15.21v-27.11c.21-5.29-3.91-9.75-9.2-9.96-5.17-.2-9.57,3.73-9.94,8.89-.02,.36-.02,.72,0,1.07v27.11h-15.33V24.42h15.3v6.24c3.48-4.48,8.91-7.01,14.59-6.8,6.96-.31,13.52,3.29,17,9.33,3.66-5.77,9.99-9.28,16.82-9.33,12.35,0,20.31,7.87,20.31,21.29v29.17h-15.21v-27.09Z" fill="#364043"/><path id="Tracé_383" d="M323.76,23.7c6.15-.31,12,2.65,15.39,7.78v-7.07h15.3v49.91h-15.3v-7.05c-3.44,5.13-9.3,8.09-15.47,7.8-12.16,0-21.92-10.02-21.92-25.76s9.74-25.59,22.01-25.59m4.47,13.34c-6.13,.08-11.04,5.11-10.96,11.25,0,.34,.02,.68,.06,1.01-.64,6.2,3.86,11.74,10.05,12.38,.28,.03,.57,.05,.85,.06,6.82-.86,11.65-7.09,10.79-13.9-.71-5.64-5.15-10.08-10.79-10.79" fill="#364043"/><path id="Tracé_384" d="M380.84,74.34h-15.3V24.43h15.3v8.32c3.35-5.44,9.26-8.79,15.65-8.86v16.19h-4.2c-7.25,0-11.45,2.51-11.45,11.1v23.16Z" fill="#364043"/><path id="Tracé_385" d="M481.32,75.05c-13.28,.67-24.59-9.55-25.26-22.83-.05-.94-.04-1.89,.02-2.83-.96-13.21,8.98-24.7,22.19-25.65,1.01-.07,2.03-.08,3.05-.03,12.97-.76,24.11,9.13,24.87,22.1,.05,.92,.05,1.85,0,2.77,0,1.49-.09,2.99-.27,4.47h-34.63c-.18,5.11,3.82,9.39,8.93,9.57,0,0,0,0,0,0h.56c3.4,.22,6.58-1.71,7.96-4.83h16.32c-2.85,10.62-12.72,17.81-23.71,17.26m-9.93-30.5h19.12c-.01-4.78-3.9-8.64-8.67-8.62h0c-.24,0-.48,0-.72,.03-5.01-.17-9.28,3.6-9.74,8.59" fill="#364043"/><path id="Tracé_386" d="M516.67,37.12h-6.06v-12.71h6.06V12.25h15.3v12.17h10.03v12.71h-10.02v20.06c0,2.95,1.25,4.2,4.66,4.2h5.46v12.97h-7.78c-10.38,0-17.64-4.38-17.64-17.36v-19.86Z" fill="#364043"/><path id="Tracé_387" d="M453.14,24.4h-18.88l-15.12,20.31V12.25h-15.29v62.08h15.31v-20.96l15.21,20.96h18.96l-20.94-24.87,20.76-25.05Z" fill="#364043"/><path id="Tracé_388" d="M232.08,105.43c6.15-.31,12,2.65,15.39,7.78v-7.07h15.3v49.91h-15.3v-7.07c-3.44,5.13-9.32,8.09-15.49,7.78-12.16,0-21.92-10.02-21.92-25.77s9.76-25.57,22.01-25.57m4.48,13.33c-6.14,.08-11.05,5.11-10.98,11.25,0,.33,.02,.67,.06,1-.64,6.2,3.86,11.74,10.06,12.38,.28,.03,.57,.05,.86,.06,6.82-.86,11.65-7.09,10.79-13.9-.71-5.64-5.15-10.08-10.79-10.79" fill="#364043"/><path id="Tracé_389" d="M295.87,105.43c11.61-.75,21.94,7.34,23.98,18.8h-16.3c-1-3.53-4.3-5.9-7.96-5.73-5.46,0-9.22,4.3-9.22,12.62s3.75,12.59,9.22,12.59c3.68,.22,7-2.17,7.96-5.73h16.3c-2.18,11.37-12.41,19.4-23.98,18.8-14.18-.38-25.37-12.19-24.98-26.37,.37-13.64,11.34-24.62,24.98-24.98" fill="#364043"/><path id="Tracé_390" d="M346.96,105.43c6.15-.31,12,2.65,15.39,7.78v-7.07h15.3v49.91h-15.3v-7.07c-3.44,5.12-9.31,8.08-15.48,7.78-12.17,0-21.92-10.02-21.92-25.76s9.74-25.58,22.01-25.58m4.47,13.33c-6.13,.08-11.04,5.11-10.96,11.25,0,.34,.02,.68,.06,1.01-.64,6.2,3.86,11.74,10.05,12.38,.28,.03,.57,.05,.85,.06,6.82-.86,11.65-7.09,10.79-13.9-.71-5.64-5.15-10.08-10.79-10.79" fill="#364043"/><path id="Tracé_391" d="M407.7,105.43c6.08-.18,11.84,2.67,15.39,7.61v-23.17h15.31v66.21h-15.32v-7.15c-3.35,5.19-9.22,8.19-15.39,7.87-12.26,0-22.01-10.02-22.01-25.77s9.75-25.59,22.01-25.59m4.48,13.33c-6.13,.08-11.04,5.11-10.96,11.25,0,.34,.02,.67,.06,1.01-.65,6.19,3.85,11.74,10.04,12.38,.29,.03,.57,.05,.86,.06,6.82-.86,11.65-7.09,10.79-13.9-.71-5.64-5.15-10.08-10.79-10.79" fill="#364043"/><path id="Tracé_392" d="M471.68,156.79c-14.18-.19-25.52-11.84-25.33-26.02,.19-13.91,11.42-25.15,25.33-25.33,12.97-.76,24.11,9.13,24.87,22.1,.05,.93,.05,1.87,0,2.8,0,1.5-.1,2.99-.28,4.47h-34.63c-.18,5.1,3.81,9.39,8.92,9.57h.56c3.41,.22,6.59-1.71,7.97-4.83h16.3c-2.85,10.63-12.73,17.82-23.72,17.26m-9.93-30.51h19.15c-.01-4.78-3.9-8.64-8.67-8.62h0c-.24,0-.48,.01-.72,.03-5.01-.17-9.28,3.6-9.74,8.59" fill="#364043"/><path id="Tracé_393" d="M573.42,128.96c.02-5.3-4.26-9.61-9.55-9.63-4.91-.02-9.04,3.67-9.57,8.55-.02,.36-.02,.72,0,1.07v27.11h-15.21v-27.11c.21-5.29-3.91-9.75-9.21-9.96-5.17-.2-9.56,3.73-9.94,8.88-.02,.36-.02,.72,0,1.07v27.11h-15.3v-49.91h15.3v6.26c3.48-4.48,8.91-7.02,14.59-6.8,6.97-.31,13.52,3.29,17,9.33,3.66-5.77,9.99-9.28,16.82-9.33,12.35,0,20.31,7.87,20.31,21.28v29.17h-15.21l-.03-27.11Z" fill="#364043"/><path id="Tracé_394" d="M608.03,167.69h16.15l26.18-61.54h-16.56l-11.45,31.25-11.54-31.23h-17.09l20.31,48.22-6,13.29Z" fill="#364043"/></g><path id="Tracé_1038" d="M166.06,177.91H9.68c-5.35,0-9.68-4.33-9.68-9.68H0V11.73C0,6.39,4.34,2.06,9.68,2.06H166.06c5.35,0,9.68,4.34,9.67,9.68V168.2c.01,5.35-4.31,9.69-9.65,9.7,0,0-.01,0-.02,0Z" fill="#438094"/><path id="Tracé_1039" d="M128.23,99.95l12.46-8.62-26.37-36.29-37.51,25.38-19.4-25.38L.1,93.86v74.35c0,5.35,4.33,9.68,9.68,9.68h57.37l79.17-54.01-18.08-23.93Z" fill="#074b50"/><g id="Groupe_5467"><path id="Tracé_353" d="M163.17,99.03l-26.12-26.43h0l-.93-.93-15.14-15.33c-2.34-2.34-6.12-2.36-8.48-.05l-15.12,14.99-1.11,1.1h0l-26.37,26.16c-2.34,2.32-2.35,6.09-.04,8.42,0,0,0,0,0,0l16.12,16.26c2.31,2.34,6.08,2.35,8.42,.04,0,0,0,0,0,0h0l22.12-21.92,21.92,22.16c2.31,2.33,6.06,2.35,8.4,.06h0l16.29-16.09c2.34-2.31,2.36-6.08,.05-8.42h0" fill="#fff"/><path id="Tracé_354" d="M79.77,72.76l-16.13-16.26c-2.32-2.34-6.09-2.35-8.42-.04h0S12.59,98.72,12.59,98.72c-2.32,2.31-2.34,6.06-.04,8.4h0l16.12,16.27c2.32,2.34,6.09,2.35,8.42,.04h0s42.63-42.27,42.63-42.27c2.32-2.31,2.34-6.06,.04-8.4h0" fill="#fff"/></g></g></g></svg>