<?xml version="1.0" encoding="UTF-8"?><svg id="Calque_2" xmlns="http://www.w3.org/2000/svg" viewBox="0 0 50.82 54.51"><g id="Calque_1-2"><path d="M19.1,16.04c3.03-3.52-.26-8.14-2.29-11.28C15.67,2.93,13.98,.35,11.61,.02c-2.25-.24-4.29,2.26-5.78,3.63C2.25,6.9,.26,11.13,.05,15.97c.03,.55,.03,1.45-.05,.63,.35,2.9,.68,5.65,1.71,8.4,.93,2.6,2.24,4.98,3.73,7.28,3.2,4.83,6.9,9.51,11.29,13.39,4.28,3.8,9.1,7.22,14.81,8.45,5.36,1.09,10.58-.04,14.81-3.52,1.53-1.25,4.35-3.07,4.46-5.23,.12-2.18-1.62-3.93-3.11-5.24-3.18-2.85-7.87-7.59-12.2-4.13-1.69,1.38-3.47,3.94-5.74,4.3-2.24,.37-4.41-1.26-6.03-2.55-3.62-2.96-7.16-6.97-9.31-11.17-.89-1.87-1.7-4.27-.38-6.14,1.35-1.82,3.61-2.69,5.06-4.41Z" fill="#074b50"/></g></svg>